<mxfile host="app.diagrams.net" modified="2020-11-11T09:42:21.241Z" agent="5.0 (X11; Linux x86_64) AppleWebKit/537.36 (KHTML, like Gecko) Chrome/84.0.4147.125 Safari/537.36" etag="bwWmhFump-mcVzxnuGeW" version="13.9.5" type="github">
  <diagram name="Page-1" id="efa7a0a1-bf9b-a30e-e6df-94a7791c09e9">
    <mxGraphModel dx="813" dy="458" grid="1" gridSize="10" guides="1" tooltips="1" connect="1" arrows="1" fold="1" page="1" pageScale="1" pageWidth="826" pageHeight="1169" background="#ffffff" math="0" shadow="0">
      <root>
        <mxCell id="0" />
        <mxCell id="1" parent="0" />
        <mxCell id="iTBIp2t60oUcCnTffayd-115" value="" style="rounded=0;whiteSpace=wrap;html=1;fillColor=#e1d5e7;strokeColor=#9673a6;" vertex="1" parent="1">
          <mxGeometry x="109" y="80.5" width="90" height="20" as="geometry" />
        </mxCell>
        <mxCell id="iTBIp2t60oUcCnTffayd-116" value="&lt;font style=&quot;font-size: 10px&quot;&gt;Category&lt;/font&gt;" style="text;html=1;strokeColor=none;fillColor=none;align=center;verticalAlign=middle;whiteSpace=wrap;rounded=0;" vertex="1" parent="1">
          <mxGeometry x="134" y="79.5" width="40" height="20" as="geometry" />
        </mxCell>
        <mxCell id="iTBIp2t60oUcCnTffayd-117" value="" style="rounded=0;whiteSpace=wrap;html=1;fillColor=#ffe6cc;strokeColor=#d79b00;" vertex="1" parent="1">
          <mxGeometry x="109" y="100.5" width="90" height="20" as="geometry" />
        </mxCell>
        <mxCell id="iTBIp2t60oUcCnTffayd-118" value="" style="rounded=0;whiteSpace=wrap;html=1;fillColor=#dae8fc;strokeColor=#6c8ebf;" vertex="1" parent="1">
          <mxGeometry x="109" y="115.5" width="90" height="20" as="geometry" />
        </mxCell>
        <mxCell id="iTBIp2t60oUcCnTffayd-119" value="" style="rounded=0;whiteSpace=wrap;html=1;fillColor=#dae8fc;strokeColor=#6c8ebf;" vertex="1" parent="1">
          <mxGeometry x="109" y="130.5" width="90" height="20" as="geometry" />
        </mxCell>
        <mxCell id="iTBIp2t60oUcCnTffayd-120" value="" style="rounded=0;whiteSpace=wrap;html=1;fillColor=#dae8fc;strokeColor=#6c8ebf;" vertex="1" parent="1">
          <mxGeometry x="109" y="145.5" width="90" height="15" as="geometry" />
        </mxCell>
        <mxCell id="iTBIp2t60oUcCnTffayd-121" value="&lt;font style=&quot;font-size: 8px&quot;&gt;_id&lt;/font&gt;" style="text;html=1;strokeColor=none;fillColor=none;align=center;verticalAlign=middle;whiteSpace=wrap;rounded=0;" vertex="1" parent="1">
          <mxGeometry x="95" y="100.5" width="50" height="10" as="geometry" />
        </mxCell>
        <mxCell id="iTBIp2t60oUcCnTffayd-122" value="&lt;span style=&quot;font-size: 8px&quot;&gt;categoryName&lt;/span&gt;" style="text;html=1;strokeColor=none;fillColor=none;align=center;verticalAlign=middle;whiteSpace=wrap;rounded=0;" vertex="1" parent="1">
          <mxGeometry x="115" y="115.5" width="50" height="10" as="geometry" />
        </mxCell>
        <mxCell id="iTBIp2t60oUcCnTffayd-123" value="&lt;span style=&quot;font-size: 8px&quot;&gt;description&lt;/span&gt;" style="text;html=1;strokeColor=none;fillColor=none;align=center;verticalAlign=middle;whiteSpace=wrap;rounded=0;" vertex="1" parent="1">
          <mxGeometry x="108" y="130.5" width="50" height="10" as="geometry" />
        </mxCell>
        <mxCell id="iTBIp2t60oUcCnTffayd-124" value="&lt;span style=&quot;font-size: 8px&quot;&gt;active&lt;/span&gt;" style="text;html=1;strokeColor=none;fillColor=none;align=center;verticalAlign=middle;whiteSpace=wrap;rounded=0;" vertex="1" parent="1">
          <mxGeometry x="100" y="145.5" width="50" height="10" as="geometry" />
        </mxCell>
        <mxCell id="iTBIp2t60oUcCnTffayd-125" value="" style="rounded=0;whiteSpace=wrap;html=1;fillColor=#e1d5e7;strokeColor=#9673a6;" vertex="1" parent="1">
          <mxGeometry x="240" y="80" width="90" height="20" as="geometry" />
        </mxCell>
        <mxCell id="iTBIp2t60oUcCnTffayd-126" value="&lt;font style=&quot;font-size: 10px&quot;&gt;Product&lt;/font&gt;" style="text;html=1;strokeColor=none;fillColor=none;align=center;verticalAlign=middle;whiteSpace=wrap;rounded=0;" vertex="1" parent="1">
          <mxGeometry x="265" y="79" width="40" height="20" as="geometry" />
        </mxCell>
        <mxCell id="iTBIp2t60oUcCnTffayd-132" value="&lt;span style=&quot;font-size: 8px&quot;&gt;productName&lt;/span&gt;" style="text;html=1;strokeColor=none;fillColor=none;align=center;verticalAlign=middle;whiteSpace=wrap;rounded=0;" vertex="1" parent="1">
          <mxGeometry x="246" y="129" width="50" height="10" as="geometry" />
        </mxCell>
        <mxCell id="iTBIp2t60oUcCnTffayd-133" value="&lt;span style=&quot;font-size: 8px&quot;&gt;productImages&lt;/span&gt;" style="text;html=1;strokeColor=none;fillColor=none;align=center;verticalAlign=middle;whiteSpace=wrap;rounded=0;" vertex="1" parent="1">
          <mxGeometry x="246" y="143" width="50" height="10" as="geometry" />
        </mxCell>
        <mxCell id="iTBIp2t60oUcCnTffayd-134" value="&lt;span style=&quot;font-size: 8px&quot;&gt;productPrice&lt;/span&gt;" style="text;html=1;strokeColor=none;fillColor=none;align=center;verticalAlign=middle;whiteSpace=wrap;rounded=0;" vertex="1" parent="1">
          <mxGeometry x="246" y="158" width="50" height="10" as="geometry" />
        </mxCell>
        <mxCell id="iTBIp2t60oUcCnTffayd-127" value="" style="rounded=0;whiteSpace=wrap;html=1;fillColor=#ffe6cc;strokeColor=#d79b00;" vertex="1" parent="1">
          <mxGeometry x="240" y="100" width="90" height="20" as="geometry" />
        </mxCell>
        <mxCell id="iTBIp2t60oUcCnTffayd-148" value="" style="rounded=0;whiteSpace=wrap;html=1;fillColor=#fff2cc;strokeColor=#d6b656;" vertex="1" parent="1">
          <mxGeometry x="240" y="114" width="90" height="20" as="geometry" />
        </mxCell>
        <mxCell id="iTBIp2t60oUcCnTffayd-128" value="" style="rounded=0;whiteSpace=wrap;html=1;fillColor=#dae8fc;strokeColor=#6c8ebf;" vertex="1" parent="1">
          <mxGeometry x="240" y="129" width="90" height="20" as="geometry" />
        </mxCell>
        <mxCell id="iTBIp2t60oUcCnTffayd-129" value="" style="rounded=0;whiteSpace=wrap;html=1;fillColor=#dae8fc;strokeColor=#6c8ebf;" vertex="1" parent="1">
          <mxGeometry x="240" y="144" width="90" height="20" as="geometry" />
        </mxCell>
        <mxCell id="iTBIp2t60oUcCnTffayd-130" value="" style="rounded=0;whiteSpace=wrap;html=1;fillColor=#dae8fc;strokeColor=#6c8ebf;" vertex="1" parent="1">
          <mxGeometry x="240" y="159" width="90" height="15" as="geometry" />
        </mxCell>
        <mxCell id="iTBIp2t60oUcCnTffayd-145" value="" style="rounded=0;whiteSpace=wrap;html=1;fillColor=#dae8fc;strokeColor=#6c8ebf;" vertex="1" parent="1">
          <mxGeometry x="240" y="174" width="90" height="15" as="geometry" />
        </mxCell>
        <mxCell id="iTBIp2t60oUcCnTffayd-131" value="&lt;font style=&quot;font-size: 8px&quot;&gt;_id&lt;/font&gt;" style="text;html=1;strokeColor=none;fillColor=none;align=center;verticalAlign=middle;whiteSpace=wrap;rounded=0;" vertex="1" parent="1">
          <mxGeometry x="226" y="100" width="50" height="10" as="geometry" />
        </mxCell>
        <mxCell id="iTBIp2t60oUcCnTffayd-146" value="&lt;span style=&quot;font-size: 8px&quot;&gt;active&lt;/span&gt;" style="text;html=1;strokeColor=none;fillColor=none;align=center;verticalAlign=middle;whiteSpace=wrap;rounded=0;" vertex="1" parent="1">
          <mxGeometry x="230" y="174" width="50" height="10" as="geometry" />
        </mxCell>
        <mxCell id="iTBIp2t60oUcCnTffayd-149" value="&lt;font style=&quot;font-size: 8px&quot;&gt;productName&lt;/font&gt;" style="text;html=1;strokeColor=none;fillColor=none;align=center;verticalAlign=middle;whiteSpace=wrap;rounded=0;" vertex="1" parent="1">
          <mxGeometry x="244" y="130" width="50" height="10" as="geometry" />
        </mxCell>
        <mxCell id="iTBIp2t60oUcCnTffayd-153" style="edgeStyle=orthogonalEdgeStyle;rounded=0;orthogonalLoop=1;jettySize=auto;html=1;entryX=1;entryY=0.5;entryDx=0;entryDy=0;" edge="1" parent="1" source="iTBIp2t60oUcCnTffayd-150" target="iTBIp2t60oUcCnTffayd-117">
          <mxGeometry relative="1" as="geometry" />
        </mxCell>
        <mxCell id="iTBIp2t60oUcCnTffayd-150" value="&lt;span style=&quot;font-size: 8px&quot;&gt;categoryId&lt;/span&gt;" style="text;html=1;strokeColor=none;fillColor=none;align=center;verticalAlign=middle;whiteSpace=wrap;rounded=0;" vertex="1" parent="1">
          <mxGeometry x="239" y="117.5" width="50" height="5" as="geometry" />
        </mxCell>
        <mxCell id="iTBIp2t60oUcCnTffayd-151" value="&lt;font style=&quot;font-size: 8px&quot;&gt;productImages&lt;/font&gt;" style="text;html=1;strokeColor=none;fillColor=none;align=center;verticalAlign=middle;whiteSpace=wrap;rounded=0;" vertex="1" parent="1">
          <mxGeometry x="246" y="144" width="50" height="10" as="geometry" />
        </mxCell>
        <mxCell id="iTBIp2t60oUcCnTffayd-152" value="&lt;font style=&quot;font-size: 8px&quot;&gt;productPrice&lt;/font&gt;" style="text;html=1;strokeColor=none;fillColor=none;align=center;verticalAlign=middle;whiteSpace=wrap;rounded=0;" vertex="1" parent="1">
          <mxGeometry x="242" y="159" width="50" height="10" as="geometry" />
        </mxCell>
        <mxCell id="iTBIp2t60oUcCnTffayd-169" value="" style="rounded=0;whiteSpace=wrap;html=1;fillColor=#e1d5e7;strokeColor=#9673a6;" vertex="1" parent="1">
          <mxGeometry x="374" y="81" width="90" height="20" as="geometry" />
        </mxCell>
        <mxCell id="iTBIp2t60oUcCnTffayd-170" value="&lt;font style=&quot;font-size: 10px&quot;&gt;User&lt;/font&gt;" style="text;html=1;strokeColor=none;fillColor=none;align=center;verticalAlign=middle;whiteSpace=wrap;rounded=0;" vertex="1" parent="1">
          <mxGeometry x="399" y="80" width="40" height="20" as="geometry" />
        </mxCell>
        <mxCell id="iTBIp2t60oUcCnTffayd-171" value="&lt;span style=&quot;font-size: 8px&quot;&gt;productName&lt;/span&gt;" style="text;html=1;strokeColor=none;fillColor=none;align=center;verticalAlign=middle;whiteSpace=wrap;rounded=0;" vertex="1" parent="1">
          <mxGeometry x="380" y="114" width="50" height="10" as="geometry" />
        </mxCell>
        <mxCell id="iTBIp2t60oUcCnTffayd-172" value="&lt;span style=&quot;font-size: 8px&quot;&gt;productImages&lt;/span&gt;" style="text;html=1;strokeColor=none;fillColor=none;align=center;verticalAlign=middle;whiteSpace=wrap;rounded=0;" vertex="1" parent="1">
          <mxGeometry x="380" y="128" width="50" height="10" as="geometry" />
        </mxCell>
        <mxCell id="iTBIp2t60oUcCnTffayd-173" value="&lt;span style=&quot;font-size: 8px&quot;&gt;productPrice&lt;/span&gt;" style="text;html=1;strokeColor=none;fillColor=none;align=center;verticalAlign=middle;whiteSpace=wrap;rounded=0;" vertex="1" parent="1">
          <mxGeometry x="380" y="143" width="50" height="10" as="geometry" />
        </mxCell>
        <mxCell id="iTBIp2t60oUcCnTffayd-174" value="" style="rounded=0;whiteSpace=wrap;html=1;fillColor=#ffe6cc;strokeColor=#d79b00;" vertex="1" parent="1">
          <mxGeometry x="374" y="101" width="90" height="20" as="geometry" />
        </mxCell>
        <mxCell id="iTBIp2t60oUcCnTffayd-176" value="" style="rounded=0;whiteSpace=wrap;html=1;fillColor=#dae8fc;strokeColor=#6c8ebf;" vertex="1" parent="1">
          <mxGeometry x="374" y="114" width="90" height="20" as="geometry" />
        </mxCell>
        <mxCell id="iTBIp2t60oUcCnTffayd-177" value="" style="rounded=0;whiteSpace=wrap;html=1;fillColor=#dae8fc;strokeColor=#6c8ebf;" vertex="1" parent="1">
          <mxGeometry x="374" y="129" width="90" height="20" as="geometry" />
        </mxCell>
        <mxCell id="iTBIp2t60oUcCnTffayd-178" value="" style="rounded=0;whiteSpace=wrap;html=1;fillColor=#dae8fc;strokeColor=#6c8ebf;" vertex="1" parent="1">
          <mxGeometry x="374" y="144" width="90" height="15" as="geometry" />
        </mxCell>
        <mxCell id="iTBIp2t60oUcCnTffayd-180" value="&lt;font style=&quot;font-size: 8px&quot;&gt;name&lt;/font&gt;" style="text;html=1;strokeColor=none;fillColor=none;align=center;verticalAlign=middle;whiteSpace=wrap;rounded=0;" vertex="1" parent="1">
          <mxGeometry x="364" y="115" width="50" height="10" as="geometry" />
        </mxCell>
        <mxCell id="iTBIp2t60oUcCnTffayd-182" value="&lt;font style=&quot;font-size: 8px&quot;&gt;email&lt;/font&gt;" style="text;html=1;strokeColor=none;fillColor=none;align=center;verticalAlign=middle;whiteSpace=wrap;rounded=0;" vertex="1" parent="1">
          <mxGeometry x="364" y="129" width="50" height="10" as="geometry" />
        </mxCell>
        <mxCell id="iTBIp2t60oUcCnTffayd-183" value="&lt;font style=&quot;font-size: 8px&quot;&gt;dob&lt;/font&gt;" style="text;html=1;strokeColor=none;fillColor=none;align=center;verticalAlign=middle;whiteSpace=wrap;rounded=0;" vertex="1" parent="1">
          <mxGeometry x="361" y="144" width="50" height="10" as="geometry" />
        </mxCell>
        <mxCell id="iTBIp2t60oUcCnTffayd-184" value="&lt;span style=&quot;font-size: 8px&quot;&gt;_id&lt;/span&gt;" style="text;html=1;strokeColor=none;fillColor=none;align=center;verticalAlign=middle;whiteSpace=wrap;rounded=0;" vertex="1" parent="1">
          <mxGeometry x="360" y="103.5" width="50" height="5" as="geometry" />
        </mxCell>
        <mxCell id="iTBIp2t60oUcCnTffayd-185" value="" style="rounded=0;whiteSpace=wrap;html=1;fillColor=#dae8fc;strokeColor=#6c8ebf;" vertex="1" parent="1">
          <mxGeometry x="374" y="158" width="90" height="15" as="geometry" />
        </mxCell>
        <mxCell id="iTBIp2t60oUcCnTffayd-186" value="" style="rounded=0;whiteSpace=wrap;html=1;fillColor=#dae8fc;strokeColor=#6c8ebf;" vertex="1" parent="1">
          <mxGeometry x="374" y="173" width="90" height="15" as="geometry" />
        </mxCell>
        <mxCell id="iTBIp2t60oUcCnTffayd-187" value="&lt;font style=&quot;font-size: 8px&quot;&gt;password&lt;/font&gt;" style="text;html=1;strokeColor=none;fillColor=none;align=center;verticalAlign=middle;whiteSpace=wrap;rounded=0;" vertex="1" parent="1">
          <mxGeometry x="372" y="159" width="50" height="10" as="geometry" />
        </mxCell>
        <mxCell id="iTBIp2t60oUcCnTffayd-188" value="&lt;font style=&quot;font-size: 8px&quot;&gt;userType&lt;/font&gt;" style="text;html=1;strokeColor=none;fillColor=none;align=center;verticalAlign=middle;whiteSpace=wrap;rounded=0;" vertex="1" parent="1">
          <mxGeometry x="371" y="173" width="50" height="10" as="geometry" />
        </mxCell>
        <mxCell id="iTBIp2t60oUcCnTffayd-189" value="" style="rounded=0;whiteSpace=wrap;html=1;fillColor=#e1d5e7;strokeColor=#9673a6;" vertex="1" parent="1">
          <mxGeometry x="374" y="241" width="90" height="20" as="geometry" />
        </mxCell>
        <mxCell id="iTBIp2t60oUcCnTffayd-190" value="&lt;font style=&quot;font-size: 10px&quot;&gt;Address&lt;/font&gt;" style="text;html=1;strokeColor=none;fillColor=none;align=center;verticalAlign=middle;whiteSpace=wrap;rounded=0;" vertex="1" parent="1">
          <mxGeometry x="399" y="240" width="40" height="20" as="geometry" />
        </mxCell>
        <mxCell id="iTBIp2t60oUcCnTffayd-191" value="&lt;span style=&quot;font-size: 8px&quot;&gt;productName&lt;/span&gt;" style="text;html=1;strokeColor=none;fillColor=none;align=center;verticalAlign=middle;whiteSpace=wrap;rounded=0;" vertex="1" parent="1">
          <mxGeometry x="380" y="290" width="50" height="10" as="geometry" />
        </mxCell>
        <mxCell id="iTBIp2t60oUcCnTffayd-192" value="&lt;span style=&quot;font-size: 8px&quot;&gt;productImages&lt;/span&gt;" style="text;html=1;strokeColor=none;fillColor=none;align=center;verticalAlign=middle;whiteSpace=wrap;rounded=0;" vertex="1" parent="1">
          <mxGeometry x="380" y="304" width="50" height="10" as="geometry" />
        </mxCell>
        <mxCell id="iTBIp2t60oUcCnTffayd-193" value="&lt;span style=&quot;font-size: 8px&quot;&gt;productPrice&lt;/span&gt;" style="text;html=1;strokeColor=none;fillColor=none;align=center;verticalAlign=middle;whiteSpace=wrap;rounded=0;" vertex="1" parent="1">
          <mxGeometry x="380" y="319" width="50" height="10" as="geometry" />
        </mxCell>
        <mxCell id="iTBIp2t60oUcCnTffayd-194" value="" style="rounded=0;whiteSpace=wrap;html=1;fillColor=#ffe6cc;strokeColor=#d79b00;" vertex="1" parent="1">
          <mxGeometry x="374" y="261" width="90" height="20" as="geometry" />
        </mxCell>
        <mxCell id="iTBIp2t60oUcCnTffayd-208" style="edgeStyle=orthogonalEdgeStyle;rounded=0;orthogonalLoop=1;jettySize=auto;html=1;entryX=1;entryY=0.5;entryDx=0;entryDy=0;" edge="1" parent="1" source="iTBIp2t60oUcCnTffayd-195" target="iTBIp2t60oUcCnTffayd-174">
          <mxGeometry relative="1" as="geometry">
            <Array as="points">
              <mxPoint x="470" y="285" />
              <mxPoint x="470" y="111" />
            </Array>
          </mxGeometry>
        </mxCell>
        <mxCell id="iTBIp2t60oUcCnTffayd-195" value="" style="rounded=0;whiteSpace=wrap;html=1;fillColor=#fff2cc;strokeColor=#d6b656;" vertex="1" parent="1">
          <mxGeometry x="374" y="275" width="90" height="20" as="geometry" />
        </mxCell>
        <mxCell id="iTBIp2t60oUcCnTffayd-196" value="" style="rounded=0;whiteSpace=wrap;html=1;fillColor=#dae8fc;strokeColor=#6c8ebf;" vertex="1" parent="1">
          <mxGeometry x="374" y="290" width="90" height="20" as="geometry" />
        </mxCell>
        <mxCell id="iTBIp2t60oUcCnTffayd-197" value="" style="rounded=0;whiteSpace=wrap;html=1;fillColor=#dae8fc;strokeColor=#6c8ebf;" vertex="1" parent="1">
          <mxGeometry x="374" y="305" width="90" height="20" as="geometry" />
        </mxCell>
        <mxCell id="iTBIp2t60oUcCnTffayd-198" value="" style="rounded=0;whiteSpace=wrap;html=1;fillColor=#dae8fc;strokeColor=#6c8ebf;" vertex="1" parent="1">
          <mxGeometry x="374" y="320" width="90" height="15" as="geometry" />
        </mxCell>
        <mxCell id="iTBIp2t60oUcCnTffayd-199" value="" style="rounded=0;whiteSpace=wrap;html=1;fillColor=#dae8fc;strokeColor=#6c8ebf;" vertex="1" parent="1">
          <mxGeometry x="374" y="335" width="90" height="15" as="geometry" />
        </mxCell>
        <mxCell id="iTBIp2t60oUcCnTffayd-200" value="&lt;font style=&quot;font-size: 8px&quot;&gt;_id&lt;/font&gt;" style="text;html=1;strokeColor=none;fillColor=none;align=center;verticalAlign=middle;whiteSpace=wrap;rounded=0;" vertex="1" parent="1">
          <mxGeometry x="362" y="261" width="50" height="10" as="geometry" />
        </mxCell>
        <mxCell id="iTBIp2t60oUcCnTffayd-201" value="&lt;span style=&quot;font-size: 8px&quot;&gt;pincode&lt;/span&gt;" style="text;html=1;strokeColor=none;fillColor=none;align=center;verticalAlign=middle;whiteSpace=wrap;rounded=0;" vertex="1" parent="1">
          <mxGeometry x="369" y="335" width="50" height="10" as="geometry" />
        </mxCell>
        <mxCell id="iTBIp2t60oUcCnTffayd-202" value="&lt;font style=&quot;font-size: 8px&quot;&gt;addressType&lt;/font&gt;" style="text;html=1;strokeColor=none;fillColor=none;align=center;verticalAlign=middle;whiteSpace=wrap;rounded=0;" vertex="1" parent="1">
          <mxGeometry x="378" y="291" width="50" height="10" as="geometry" />
        </mxCell>
        <mxCell id="iTBIp2t60oUcCnTffayd-203" value="&lt;span style=&quot;font-size: 8px&quot;&gt;userId&lt;/span&gt;" style="text;html=1;strokeColor=none;fillColor=none;align=center;verticalAlign=middle;whiteSpace=wrap;rounded=0;" vertex="1" parent="1">
          <mxGeometry x="367" y="278.5" width="50" height="5" as="geometry" />
        </mxCell>
        <mxCell id="iTBIp2t60oUcCnTffayd-204" value="&lt;font style=&quot;font-size: 8px&quot;&gt;address1&lt;/font&gt;" style="text;html=1;strokeColor=none;fillColor=none;align=center;verticalAlign=middle;whiteSpace=wrap;rounded=0;" vertex="1" parent="1">
          <mxGeometry x="372" y="305" width="50" height="10" as="geometry" />
        </mxCell>
        <mxCell id="iTBIp2t60oUcCnTffayd-205" value="&lt;font style=&quot;font-size: 8px&quot;&gt;address2&lt;/font&gt;" style="text;html=1;strokeColor=none;fillColor=none;align=center;verticalAlign=middle;whiteSpace=wrap;rounded=0;" vertex="1" parent="1">
          <mxGeometry x="372" y="320" width="50" height="10" as="geometry" />
        </mxCell>
        <mxCell id="iTBIp2t60oUcCnTffayd-206" value="" style="rounded=0;whiteSpace=wrap;html=1;fillColor=#dae8fc;strokeColor=#6c8ebf;" vertex="1" parent="1">
          <mxGeometry x="374" y="350" width="90" height="15" as="geometry" />
        </mxCell>
        <mxCell id="iTBIp2t60oUcCnTffayd-207" value="&lt;span style=&quot;font-size: 8px&quot;&gt;phoneNumber&lt;/span&gt;" style="text;html=1;strokeColor=none;fillColor=none;align=center;verticalAlign=middle;whiteSpace=wrap;rounded=0;" vertex="1" parent="1">
          <mxGeometry x="380" y="350" width="50" height="10" as="geometry" />
        </mxCell>
        <mxCell id="iTBIp2t60oUcCnTffayd-209" value="" style="rounded=0;whiteSpace=wrap;html=1;fillColor=#e1d5e7;strokeColor=#9673a6;" vertex="1" parent="1">
          <mxGeometry x="229" y="241" width="90" height="20" as="geometry" />
        </mxCell>
        <mxCell id="iTBIp2t60oUcCnTffayd-210" value="&lt;font style=&quot;font-size: 10px&quot;&gt;Cart&lt;/font&gt;" style="text;html=1;strokeColor=none;fillColor=none;align=center;verticalAlign=middle;whiteSpace=wrap;rounded=0;" vertex="1" parent="1">
          <mxGeometry x="254" y="240" width="40" height="20" as="geometry" />
        </mxCell>
        <mxCell id="iTBIp2t60oUcCnTffayd-214" value="" style="rounded=0;whiteSpace=wrap;html=1;fillColor=#ffe6cc;strokeColor=#d79b00;" vertex="1" parent="1">
          <mxGeometry x="229" y="261" width="90" height="20" as="geometry" />
        </mxCell>
        <mxCell id="iTBIp2t60oUcCnTffayd-228" style="edgeStyle=orthogonalEdgeStyle;rounded=0;orthogonalLoop=1;jettySize=auto;html=1;entryX=1;entryY=0.5;entryDx=0;entryDy=0;" edge="1" parent="1" source="iTBIp2t60oUcCnTffayd-215" target="iTBIp2t60oUcCnTffayd-127">
          <mxGeometry relative="1" as="geometry">
            <Array as="points">
              <mxPoint x="340" y="285" />
              <mxPoint x="340" y="110" />
            </Array>
          </mxGeometry>
        </mxCell>
        <mxCell id="iTBIp2t60oUcCnTffayd-215" value="" style="rounded=0;whiteSpace=wrap;html=1;fillColor=#fff2cc;strokeColor=#d6b656;" vertex="1" parent="1">
          <mxGeometry x="229" y="275" width="90" height="20" as="geometry" />
        </mxCell>
        <mxCell id="iTBIp2t60oUcCnTffayd-220" value="&lt;font style=&quot;font-size: 8px&quot;&gt;_id&lt;/font&gt;" style="text;html=1;strokeColor=none;fillColor=none;align=center;verticalAlign=middle;whiteSpace=wrap;rounded=0;" vertex="1" parent="1">
          <mxGeometry x="215" y="261" width="50" height="10" as="geometry" />
        </mxCell>
        <mxCell id="iTBIp2t60oUcCnTffayd-223" value="&lt;span style=&quot;font-size: 8px&quot;&gt;productId&lt;/span&gt;" style="text;html=1;strokeColor=none;fillColor=none;align=center;verticalAlign=middle;whiteSpace=wrap;rounded=0;" vertex="1" parent="1">
          <mxGeometry x="226" y="278.5" width="50" height="5" as="geometry" />
        </mxCell>
        <mxCell id="iTBIp2t60oUcCnTffayd-229" style="edgeStyle=orthogonalEdgeStyle;rounded=0;orthogonalLoop=1;jettySize=auto;html=1;entryX=0;entryY=0.5;entryDx=0;entryDy=0;" edge="1" parent="1" source="iTBIp2t60oUcCnTffayd-226" target="iTBIp2t60oUcCnTffayd-174">
          <mxGeometry relative="1" as="geometry">
            <Array as="points">
              <mxPoint x="350" y="301" />
              <mxPoint x="350" y="111" />
            </Array>
          </mxGeometry>
        </mxCell>
        <mxCell id="iTBIp2t60oUcCnTffayd-226" value="" style="rounded=0;whiteSpace=wrap;html=1;fillColor=#fff2cc;strokeColor=#d6b656;" vertex="1" parent="1">
          <mxGeometry x="229" y="291" width="90" height="20" as="geometry" />
        </mxCell>
        <mxCell id="iTBIp2t60oUcCnTffayd-211" value="&lt;span style=&quot;font-size: 8px&quot;&gt;productName&lt;/span&gt;" style="text;html=1;strokeColor=none;fillColor=none;align=center;verticalAlign=middle;whiteSpace=wrap;rounded=0;" vertex="1" parent="1">
          <mxGeometry x="235" y="305" width="50" height="10" as="geometry" />
        </mxCell>
        <mxCell id="iTBIp2t60oUcCnTffayd-216" value="" style="rounded=0;whiteSpace=wrap;html=1;fillColor=#dae8fc;strokeColor=#6c8ebf;" vertex="1" parent="1">
          <mxGeometry x="229" y="305" width="90" height="15" as="geometry" />
        </mxCell>
        <mxCell id="iTBIp2t60oUcCnTffayd-222" value="&lt;font style=&quot;font-size: 8px&quot;&gt;quantity&lt;/font&gt;" style="text;html=1;strokeColor=none;fillColor=none;align=center;verticalAlign=middle;whiteSpace=wrap;rounded=0;" vertex="1" parent="1">
          <mxGeometry x="224" y="305" width="50" height="10" as="geometry" />
        </mxCell>
        <mxCell id="iTBIp2t60oUcCnTffayd-227" value="&lt;span style=&quot;font-size: 8px&quot;&gt;userId&lt;/span&gt;" style="text;html=1;strokeColor=none;fillColor=none;align=center;verticalAlign=middle;whiteSpace=wrap;rounded=0;" vertex="1" parent="1">
          <mxGeometry x="221" y="289.5" width="50" height="11.5" as="geometry" />
        </mxCell>
        <mxCell id="iTBIp2t60oUcCnTffayd-230" value="" style="rounded=0;whiteSpace=wrap;html=1;fillColor=#e1d5e7;strokeColor=#9673a6;" vertex="1" parent="1">
          <mxGeometry x="109" y="241" width="90" height="20" as="geometry" />
        </mxCell>
        <mxCell id="iTBIp2t60oUcCnTffayd-231" value="&lt;font style=&quot;font-size: 10px&quot;&gt;Order&lt;/font&gt;" style="text;html=1;strokeColor=none;fillColor=none;align=center;verticalAlign=middle;whiteSpace=wrap;rounded=0;" vertex="1" parent="1">
          <mxGeometry x="134" y="240" width="40" height="20" as="geometry" />
        </mxCell>
        <mxCell id="iTBIp2t60oUcCnTffayd-232" value="" style="rounded=0;whiteSpace=wrap;html=1;fillColor=#ffe6cc;strokeColor=#d79b00;" vertex="1" parent="1">
          <mxGeometry x="109" y="261" width="90" height="20" as="geometry" />
        </mxCell>
        <mxCell id="iTBIp2t60oUcCnTffayd-248" style="edgeStyle=orthogonalEdgeStyle;rounded=0;orthogonalLoop=1;jettySize=auto;html=1;entryX=0.25;entryY=1;entryDx=0;entryDy=0;" edge="1" parent="1" source="iTBIp2t60oUcCnTffayd-233" target="iTBIp2t60oUcCnTffayd-220">
          <mxGeometry relative="1" as="geometry">
            <Array as="points">
              <mxPoint x="219" y="285" />
              <mxPoint x="219" y="271" />
            </Array>
          </mxGeometry>
        </mxCell>
        <mxCell id="iTBIp2t60oUcCnTffayd-233" value="" style="rounded=0;whiteSpace=wrap;html=1;fillColor=#fff2cc;strokeColor=#d6b656;" vertex="1" parent="1">
          <mxGeometry x="109" y="275" width="90" height="20" as="geometry" />
        </mxCell>
        <mxCell id="iTBIp2t60oUcCnTffayd-234" value="&lt;font style=&quot;font-size: 8px&quot;&gt;_id&lt;/font&gt;" style="text;html=1;strokeColor=none;fillColor=none;align=center;verticalAlign=middle;whiteSpace=wrap;rounded=0;" vertex="1" parent="1">
          <mxGeometry x="95" y="261" width="50" height="10" as="geometry" />
        </mxCell>
        <mxCell id="iTBIp2t60oUcCnTffayd-235" value="&lt;span style=&quot;font-size: 8px&quot;&gt;orderItems [CartId]&lt;/span&gt;" style="text;html=1;strokeColor=none;fillColor=none;align=center;verticalAlign=middle;whiteSpace=wrap;rounded=0;" vertex="1" parent="1">
          <mxGeometry x="111" y="278.5" width="74" height="5" as="geometry" />
        </mxCell>
        <mxCell id="iTBIp2t60oUcCnTffayd-252" style="edgeStyle=orthogonalEdgeStyle;rounded=0;orthogonalLoop=1;jettySize=auto;html=1;entryX=1;entryY=0.5;entryDx=0;entryDy=0;" edge="1" parent="1" source="iTBIp2t60oUcCnTffayd-241" target="iTBIp2t60oUcCnTffayd-174">
          <mxGeometry relative="1" as="geometry">
            <Array as="points">
              <mxPoint x="210" y="310" />
              <mxPoint x="210" y="370" />
              <mxPoint x="480" y="370" />
              <mxPoint x="480" y="111" />
            </Array>
          </mxGeometry>
        </mxCell>
        <mxCell id="iTBIp2t60oUcCnTffayd-240" value="&lt;span style=&quot;font-size: 8px&quot;&gt;userId&lt;/span&gt;" style="text;html=1;strokeColor=none;fillColor=none;align=center;verticalAlign=middle;whiteSpace=wrap;rounded=0;" vertex="1" parent="1">
          <mxGeometry x="125" y="306.75" width="50" height="11.5" as="geometry" />
        </mxCell>
        <mxCell id="iTBIp2t60oUcCnTffayd-245" value="&lt;span style=&quot;font-size: 8px&quot;&gt;orderStatus&lt;/span&gt;" style="text;html=1;strokeColor=none;fillColor=none;align=center;verticalAlign=middle;whiteSpace=wrap;rounded=0;" vertex="1" parent="1">
          <mxGeometry x="110" y="319.75" width="50" height="11.5" as="geometry" />
        </mxCell>
        <mxCell id="iTBIp2t60oUcCnTffayd-246" value="" style="rounded=0;whiteSpace=wrap;html=1;fillColor=#dae8fc;strokeColor=#6c8ebf;" vertex="1" parent="1">
          <mxGeometry x="109" y="335" width="90" height="15" as="geometry" />
        </mxCell>
        <mxCell id="iTBIp2t60oUcCnTffayd-247" value="&lt;span style=&quot;font-size: 8px&quot;&gt;orderDate&lt;/span&gt;" style="text;html=1;strokeColor=none;fillColor=none;align=center;verticalAlign=middle;whiteSpace=wrap;rounded=0;" vertex="1" parent="1">
          <mxGeometry x="107" y="334.25" width="50" height="11.5" as="geometry" />
        </mxCell>
        <mxCell id="iTBIp2t60oUcCnTffayd-257" style="edgeStyle=orthogonalEdgeStyle;rounded=0;orthogonalLoop=1;jettySize=auto;html=1;entryX=0.2;entryY=1.02;entryDx=0;entryDy=0;entryPerimeter=0;" edge="1" parent="1" source="iTBIp2t60oUcCnTffayd-241" target="iTBIp2t60oUcCnTffayd-200">
          <mxGeometry relative="1" as="geometry">
            <Array as="points">
              <mxPoint x="220" y="301" />
              <mxPoint x="220" y="350" />
              <mxPoint x="360" y="350" />
              <mxPoint x="360" y="271" />
            </Array>
          </mxGeometry>
        </mxCell>
        <mxCell id="iTBIp2t60oUcCnTffayd-241" value="" style="rounded=0;whiteSpace=wrap;html=1;fillColor=#fff2cc;strokeColor=#d6b656;" vertex="1" parent="1">
          <mxGeometry x="109" y="291" width="90" height="20" as="geometry" />
        </mxCell>
        <mxCell id="iTBIp2t60oUcCnTffayd-236" value="" style="rounded=0;whiteSpace=wrap;html=1;fillColor=#fff2cc;strokeColor=#d6b656;" vertex="1" parent="1">
          <mxGeometry x="109" y="305" width="90" height="20" as="geometry" />
        </mxCell>
        <mxCell id="iTBIp2t60oUcCnTffayd-243" value="" style="rounded=0;whiteSpace=wrap;html=1;fillColor=#dae8fc;strokeColor=#6c8ebf;" vertex="1" parent="1">
          <mxGeometry x="109" y="320" width="90" height="15" as="geometry" />
        </mxCell>
        <mxCell id="iTBIp2t60oUcCnTffayd-242" value="&lt;span style=&quot;font-size: 8px&quot;&gt;addressId&lt;/span&gt;" style="text;html=1;strokeColor=none;fillColor=none;align=center;verticalAlign=middle;whiteSpace=wrap;rounded=0;" vertex="1" parent="1">
          <mxGeometry x="107" y="290" width="50" height="11.5" as="geometry" />
        </mxCell>
        <mxCell id="iTBIp2t60oUcCnTffayd-254" value="&lt;span style=&quot;font-size: 8px&quot;&gt;userId&lt;/span&gt;" style="text;html=1;strokeColor=none;fillColor=none;align=center;verticalAlign=middle;whiteSpace=wrap;rounded=0;" vertex="1" parent="1">
          <mxGeometry x="101" y="304.25" width="50" height="11.5" as="geometry" />
        </mxCell>
        <mxCell id="iTBIp2t60oUcCnTffayd-255" value="&lt;span style=&quot;font-size: 8px&quot;&gt;orderStatus&lt;/span&gt;" style="text;html=1;strokeColor=none;fillColor=none;align=center;verticalAlign=middle;whiteSpace=wrap;rounded=0;" vertex="1" parent="1">
          <mxGeometry x="110" y="319" width="50" height="11.5" as="geometry" />
        </mxCell>
        <mxCell id="iTBIp2t60oUcCnTffayd-256" style="edgeStyle=orthogonalEdgeStyle;rounded=0;orthogonalLoop=1;jettySize=auto;html=1;entryX=1;entryY=0.5;entryDx=0;entryDy=0;" edge="1" parent="1" source="iTBIp2t60oUcCnTffayd-215" target="iTBIp2t60oUcCnTffayd-127">
          <mxGeometry relative="1" as="geometry">
            <mxPoint x="319.0000000000001" y="284.9999999999999" as="sourcePoint" />
            <mxPoint x="329.9999999999999" y="109.99999999999994" as="targetPoint" />
            <Array as="points">
              <mxPoint x="340" y="285" />
              <mxPoint x="340" y="110" />
            </Array>
          </mxGeometry>
        </mxCell>
      </root>
    </mxGraphModel>
  </diagram>
</mxfile>
